<svg width="70" height="70" viewBox="0 0 70 70" fill="none" xmlns="http://www.w3.org/2000/svg">
<rect width="70" height="70" rx="35" fill="url(#paint0_linear_114_112)"/>
<path d="M32.3765 17.7426C33.1676 17.2632 34.075 17.0098 35 17.0098C35.925 17.0098 36.8324 17.2632 37.6235 17.7426L49.436 24.9021C50.1804 25.3531 50.7959 25.9885 51.2231 26.7468C51.6504 27.5051 51.8749 28.3607 51.875 29.2311V30.5001C51.875 30.9476 51.6972 31.3769 51.3807 31.6933C51.0643 32.0098 50.6351 32.1876 50.1875 32.1876C49.7399 32.1876 49.3107 32.0098 48.9943 31.6933C48.6778 31.3769 48.5 30.9476 48.5 30.5001V29.2311C48.5003 28.9408 48.4257 28.6553 48.2834 28.4023C48.1411 28.1492 47.936 27.9372 47.6878 27.7866L35.8753 20.6293C35.6114 20.4693 35.3086 20.3846 35 20.3846C34.6914 20.3846 34.3886 20.4693 34.1248 20.6293L22.3123 27.7866C22.064 27.9372 21.8589 28.1492 21.7166 28.4023C21.5743 28.6553 21.4997 28.9408 21.5 29.2311V40.7691C21.4997 41.0594 21.5743 41.3449 21.7166 41.5979C21.8589 41.851 22.064 42.063 22.3123 42.2136L31.3753 47.7036C31.5648 47.8185 31.7298 47.9697 31.861 48.1484C31.9921 48.3271 32.0868 48.5299 32.1395 48.7452C32.1923 48.9605 32.2021 49.1841 32.1684 49.4032C32.1348 49.6223 32.0583 49.8327 31.9434 50.0222C31.8284 50.2118 31.6773 50.3768 31.4986 50.5079C31.3198 50.6391 31.117 50.7337 30.9017 50.7865C30.6864 50.8392 30.4628 50.8491 30.2437 50.8154C30.0246 50.7818 29.8143 50.7053 29.6248 50.5903L20.564 45.1003C19.819 44.6489 19.203 44.0128 18.7758 43.2537C18.3485 42.4945 18.1243 41.638 18.125 40.7668V29.2311C18.1251 28.3607 18.3496 27.5051 18.7769 26.7468C19.2041 25.9885 19.8196 25.3531 20.564 24.9021L32.3765 17.7426Z" fill="white"/>
<path fill-rule="evenodd" clip-rule="evenodd" d="M43.4352 33.4814L43.4375 33.3869V32.7434C43.4375 32.2959 43.2597 31.8666 42.9432 31.5502C42.6268 31.2337 42.1976 31.0559 41.75 31.0559C41.3024 31.0559 40.8732 31.2337 40.5568 31.5502C40.2403 31.8666 40.0625 32.2959 40.0625 32.7434V33.3869L40.0648 33.4814C39.0064 33.6963 37.9995 34.1134 37.0992 34.7099C37.0774 34.6868 37.0549 34.6643 37.0317 34.6424L36.5795 34.1857C36.2596 33.8876 35.8365 33.7253 35.3993 33.733C34.9621 33.7407 34.545 33.9178 34.2359 34.227C33.9267 34.5362 33.7496 34.9533 33.7419 35.3905C33.7341 35.8277 33.8964 36.2508 34.1945 36.5707L34.6467 37.0274L34.7143 37.0904C34.1293 37.9769 33.7018 38.9804 33.4835 40.0582C33.4535 40.0567 33.4235 40.056 33.3935 40.0559H32.75C32.3024 40.0559 31.8732 40.2337 31.5568 40.5502C31.2403 40.8666 31.0625 41.2959 31.0625 41.7434C31.0625 42.191 31.2403 42.6202 31.5568 42.9367C31.8732 43.2531 32.3024 43.4309 32.75 43.4309H33.3935L33.479 43.4287C33.6972 44.5087 34.1225 45.5122 34.7097 46.3987C34.6882 46.4183 34.6672 46.4386 34.6467 46.4594L34.1922 46.9139C33.8942 47.2338 33.7319 47.6569 33.7396 48.0941C33.7473 48.5313 33.9244 48.9484 34.2336 49.2576C34.5428 49.5667 34.9599 49.7438 35.3971 49.7516C35.8343 49.7593 36.2574 49.597 36.5773 49.2989L37.034 48.8444C37.0533 48.8254 37.072 48.8059 37.0902 48.7859C37.979 49.3732 38.9848 49.7984 40.0648 50.0189L40.0625 50.0999V50.7434C40.0625 51.191 40.2403 51.6202 40.5568 51.9367C40.8732 52.2531 41.3024 52.4309 41.75 52.4309C42.1976 52.4309 42.6268 52.2531 42.9432 51.9367C43.2597 51.6202 43.4375 51.191 43.4375 50.7434V50.0999V50.0189C44.5175 49.8007 45.521 49.3732 46.4075 48.7859L46.466 48.8444L46.9205 49.3012C47.2389 49.6084 47.6653 49.7783 48.1077 49.7742C48.5502 49.7702 48.9733 49.5925 49.2861 49.2795C49.5988 48.9665 49.7761 48.5431 49.7797 48.1007C49.7833 47.6582 49.613 47.232 49.3055 46.9139L48.8532 46.4594C48.8328 46.4393 48.8118 46.4198 48.7902 46.4009C49.3775 45.5122 49.8027 44.5064 50.021 43.4287H50.75C51.1976 43.4287 51.6268 43.2509 51.9432 42.9344C52.2597 42.6179 52.4375 42.1887 52.4375 41.7412C52.4375 41.2936 52.2597 40.8644 51.9432 40.5479C51.6268 40.2314 51.1976 40.0537 50.75 40.0537H50.1065L50.0165 40.0582C49.801 38.9989 49.3831 37.9913 48.7857 37.0904L48.8532 37.0274L49.3078 36.5729C49.6153 36.2548 49.7856 35.8286 49.782 35.3861C49.7783 34.9437 49.601 34.5203 49.2883 34.2073C48.9756 33.8943 48.5524 33.7166 48.11 33.7126C47.6675 33.7085 47.2412 33.8784 46.9227 34.1857L46.466 34.6402L46.4008 34.7077C45.5003 34.112 44.4934 33.6956 43.4352 33.4814ZM41.75 36.6877C41.0849 36.6868 40.4262 36.8171 39.8116 37.0712C39.197 37.3253 38.6386 37.6982 38.1683 38.1684C37.698 38.6387 37.3251 39.1972 37.071 39.8118C36.8169 40.4264 36.6866 41.0851 36.6875 41.7502C36.6866 42.4152 36.8169 43.0739 37.071 43.6885C37.3251 44.3032 37.698 44.8616 38.1683 45.3319C38.6386 45.8021 39.197 46.175 39.8116 46.4291C40.4262 46.6832 41.0849 46.8135 41.75 46.8127C42.4151 46.8135 43.0738 46.6832 43.6884 46.4291C44.303 46.175 44.8614 45.8021 45.3317 45.3319C45.802 44.8616 46.1749 44.3032 46.429 43.6885C46.6831 43.0739 46.8134 42.4152 46.8125 41.7502C46.8134 41.0851 46.6831 40.4264 46.429 39.8118C46.1749 39.1972 45.802 38.6387 45.3317 38.1684C44.8614 37.6982 44.303 37.3253 43.6884 37.0712C43.0738 36.8171 42.4151 36.6868 41.75 36.6877Z" fill="white"/>
<defs>
<linearGradient id="paint0_linear_114_112" x1="8.47012" y1="119.123" x2="88.1704" y2="105.381" gradientUnits="userSpaceOnUse">
<stop offset="0.2413" stop-color="#8E2DE2"/>
<stop offset="0.7874" stop-color="#4A00E0"/>
</linearGradient>
</defs>
</svg>
