<svg width="70" height="70" viewBox="0 0 70 70" fill="none" xmlns="http://www.w3.org/2000/svg">
<rect width="70" height="70" rx="35" fill="url(#paint0_linear_114_104)"/>
<path d="M18.2173 27.914C18.2173 25.8253 18.2173 24.7809 18.6238 23.9831C18.9813 23.2814 19.5519 22.7108 20.2536 22.3533C21.0514 21.9468 22.0958 21.9468 24.1845 21.9468H45.8157C47.9044 21.9468 48.9488 21.9468 49.7466 22.3533C50.4483 22.7108 51.0189 23.2814 51.3764 23.9831C51.7829 24.7809 51.7829 25.8253 51.7829 27.914V42.0861C51.7829 44.1749 51.7829 45.2193 51.3764 46.0171C51.0189 46.7188 50.4483 47.2894 49.7466 47.6468C48.9488 48.0534 47.9044 48.0534 45.8157 48.0534H24.1845C22.0958 48.0534 21.0514 48.0534 20.2536 47.6468C19.5519 47.2894 18.9813 46.7188 18.6238 46.0171C18.2173 45.2193 18.2173 44.1749 18.2173 42.0861V27.914Z" stroke="white" stroke-width="3.60921" stroke-linecap="round" stroke-linejoin="round"/>
<path d="M31.2705 29.4058L25.6763 35L31.2705 40.5943M38.7296 29.4058L44.3238 35L38.7296 40.5943" stroke="white" stroke-width="3.60921" stroke-linecap="round" stroke-linejoin="round"/>
<defs>
<linearGradient id="paint0_linear_114_104" x1="8.47012" y1="119.123" x2="88.1704" y2="105.381" gradientUnits="userSpaceOnUse">
<stop offset="0.2413" stop-color="#8E2DE2"/>
<stop offset="0.7874" stop-color="#4A00E0"/>
</linearGradient>
</defs>
</svg>
