<svg width="70" height="70" viewBox="0 0 70 70" fill="none" xmlns="http://www.w3.org/2000/svg">
<rect width="70" height="70" rx="35" fill="url(#paint0_linear_114_148)"/>
<path fill-rule="evenodd" clip-rule="evenodd" d="M30.9467 47.3562C31.2693 47.9743 31.5924 48.5313 31.9012 49.0248C28.6202 48.2706 25.7732 46.3442 23.8032 43.6984C25.1034 42.9499 26.7687 42.1741 28.7706 41.6064C29.3396 43.8876 30.1423 45.8144 30.9467 47.3562ZM33.4284 46.0032C32.7296 44.664 32.0292 42.9915 31.5247 41.0099C32.6109 40.8451 33.7704 40.75 35.0002 40.75C36.2298 40.75 37.3893 40.8451 38.4753 41.0097C37.9708 42.9915 37.2704 44.664 36.5716 46.0032C36.0114 47.0771 35.4532 47.9344 35 48.5618C34.5468 47.9344 33.9886 47.0771 33.4284 46.0032ZM30.7812 35C30.7812 36.1195 30.8549 37.1821 30.9849 38.1853C32.2379 37.9888 33.5776 37.875 35.0002 37.875C36.4226 37.875 37.7623 37.9887 39.0151 38.1853C39.1451 37.1819 39.2188 36.1195 39.2188 35C39.2188 33.8805 39.1451 32.8181 39.0151 31.8147C37.7623 32.0112 36.4226 32.125 35.0002 32.125C33.5776 32.125 32.2379 32.0112 30.9849 31.8147C30.8549 32.8179 30.7812 33.8805 30.7812 35ZM28.2254 31.2219C28.0621 32.4083 27.9688 33.6687 27.9688 35C27.9688 36.3313 28.0621 37.5917 28.2254 38.7781C25.8376 39.4334 23.8603 40.3575 22.3311 41.2466C21.4381 39.3577 20.9375 37.2387 20.9375 35C20.9375 32.7613 21.4381 30.6423 22.3311 28.7534C23.8601 29.6424 25.8374 30.5665 28.2254 31.2219ZM31.5247 28.9902C32.6109 29.155 33.7704 29.25 35.0002 29.25C36.2298 29.25 37.3893 29.155 38.4753 28.9902C37.9708 27.0086 37.2704 25.336 36.5716 23.9968C36.0114 22.923 35.4532 22.0655 35 21.4383C34.5468 22.0655 33.9886 22.923 33.4284 23.9968C32.7296 25.336 32.0292 27.0085 31.5247 28.9902ZM41.7746 31.2221C41.9379 32.4085 42.0312 33.6689 42.0312 35C42.0312 36.3313 41.9379 37.5915 41.7746 38.7779C44.1624 39.4334 46.1397 40.3575 47.669 41.2466C48.5619 39.3575 49.0625 37.2385 49.0625 35C49.0625 32.7615 48.5619 30.6424 47.669 28.7534C46.1399 29.6425 44.1626 30.5666 41.7746 31.2221ZM46.1967 26.3017C44.8964 27.0503 43.2313 27.826 41.2295 28.3938C40.6604 26.1125 39.8578 24.1856 39.0534 22.6439C38.7307 22.0256 38.4076 21.4688 38.0988 20.9752C41.3799 21.7294 44.2269 23.6559 46.1967 26.3017ZM28.7706 28.3937C26.7688 27.8259 25.1036 27.0502 23.8032 26.3016C25.7732 23.6559 28.6202 21.7294 31.901 20.9752C31.5924 21.4688 31.2693 22.0256 30.9467 22.6438C30.1423 24.1855 29.3396 26.1124 28.7706 28.3937ZM41.2295 41.6062C40.6604 43.8876 39.8578 45.8144 39.0534 47.3562C38.7307 47.9743 38.4076 48.5313 38.0988 49.0248C41.3799 48.2706 44.2269 46.344 46.1969 43.6982C44.8966 42.9498 43.2314 42.1741 41.2295 41.6062ZM35 52.25C44.3199 52.25 51.875 44.527 51.875 35C51.875 25.4731 44.3199 17.75 35 17.75C25.6802 17.75 18.125 25.4731 18.125 35C18.125 44.527 25.6802 52.25 35 52.25Z" fill="white"/>
<defs>
<linearGradient id="paint0_linear_114_148" x1="8.47012" y1="119.123" x2="88.1704" y2="105.381" gradientUnits="userSpaceOnUse">
<stop offset="0.2413" stop-color="#8E2DE2"/>
<stop offset="0.7874" stop-color="#4A00E0"/>
</linearGradient>
</defs>
</svg>
