<svg width="70" height="70" viewBox="0 0 70 70" fill="none" xmlns="http://www.w3.org/2000/svg">
<rect width="70" height="70" rx="35" fill="url(#paint0_linear_114_143)"/>
<path d="M33.1887 38.4352C33.6533 37.9721 33.6544 37.2203 33.1913 36.7557C32.7283 36.2914 31.9764 36.2902 31.512 36.7532L33.1887 38.4352ZM24.8245 34.2577L25.6642 33.4181L25.6629 33.4168L24.8245 34.2577ZM31.7061 27.7514C32.2576 28.1064 32.9924 27.947 33.3474 27.3955C33.7022 26.8441 33.5429 26.1093 32.9915 25.7543L31.7061 27.7514ZM35.7917 45.2917L34.9521 46.1313C34.9705 46.1497 34.9893 46.1674 35.0089 46.1845L35.7917 45.2917ZM44.2211 36.9505C43.8647 36.4 43.1295 36.2426 42.579 36.599C42.0285 36.9556 41.8711 37.6907 42.2275 38.2412L44.2211 36.9505ZM36.6197 46.0175L37.458 45.1765L37.4311 45.1498L37.4025 45.1246L36.6197 46.0175ZM47.2929 31.8594L38.0353 41.0892L39.7122 42.7711L48.9698 33.5414L47.2929 31.8594ZM31.0143 41.0892L28.8399 38.9213L27.163 40.6031L29.3375 42.7711L31.0143 41.0892ZM28.8399 31.9313L38.0974 22.7016L36.4205 21.0197L27.163 30.2494L28.8399 31.9313ZM43.7823 20.3541H44.6831V17.9791H43.7823V20.3541ZM49.6459 25.2985V26.1965H52.0209V25.2985H49.6459ZM44.6831 20.3541C46.1662 20.3541 47.1594 20.3567 47.8996 20.4559C48.606 20.5506 48.9014 20.7134 49.0943 20.9056L50.7712 19.2237C50.0633 18.5179 49.1836 18.2317 48.2152 18.1019C47.2806 17.9766 46.0992 17.9791 44.6831 17.9791V20.3541ZM52.0209 25.2985C52.0209 23.8869 52.0234 22.7084 51.8977 21.7757C51.7673 20.8084 51.4796 19.93 50.7712 19.2237L49.0943 20.9056C49.2866 21.0973 49.4493 21.3905 49.5439 22.0931C49.6434 22.8302 49.6459 23.8196 49.6459 25.2985H52.0209ZM28.8399 38.9213C27.791 37.8755 27.0908 37.1739 26.6381 36.5824C26.2063 36.0181 26.1138 35.6962 26.1138 35.4262H23.7388C23.7388 36.4264 24.1588 37.2505 24.752 38.0257C25.3244 38.7735 26.1617 39.605 27.163 40.6031L28.8399 38.9213ZM29.3375 42.7711C30.3388 43.7694 31.1725 44.6042 31.9225 45.1748C32.7001 45.7662 33.525 46.1835 34.5249 46.1835V43.8085C34.2508 43.8085 33.9264 43.715 33.3604 43.2845C32.7669 42.8331 32.0631 42.1348 31.0143 41.0892L29.3375 42.7711ZM48.9698 33.5414C50.2341 32.2808 51.1159 31.4314 51.5788 30.317L49.3856 29.4058C49.1464 29.9818 48.695 30.4616 47.2929 31.8594L48.9698 33.5414ZM49.6459 26.1965C49.6459 28.1735 49.6248 28.8302 49.3856 29.4058L51.5788 30.317C52.042 29.2023 52.0209 27.9792 52.0209 26.1965H49.6459ZM38.0974 22.7016C39.499 21.3041 39.9808 20.8534 40.5598 20.6143L39.6532 18.4191C38.5368 18.8802 37.6854 19.7587 36.4205 21.0197L38.0974 22.7016ZM43.7823 17.9791C41.9935 17.9791 40.7693 17.9582 39.6532 18.4191L40.5598 20.6143C41.1391 20.3751 41.8002 20.3541 43.7823 20.3541V17.9791ZM29.9271 41.687L33.1887 38.4352L31.512 36.7532L28.2502 40.0052L29.9271 41.687ZM32.9915 25.7543L31.9952 25.1131L30.7098 27.1102L31.7061 27.7514L32.9915 25.7543ZM31.9952 25.1131C31.0113 24.4798 30.2171 23.9677 29.5336 23.5994C28.8352 23.2231 28.181 22.9562 27.4575 22.8493L27.1103 25.1987C27.4577 25.2501 27.8385 25.3839 28.407 25.6902C28.9905 26.0046 29.6952 26.4572 30.7098 27.1102L31.9952 25.1131ZM20.3616 29.5444C21.2531 28.6556 22.2094 27.7026 23.0687 26.9186C23.4981 26.5269 23.8891 26.1906 24.2244 25.9321C24.5782 25.6594 24.8026 25.5267 24.9092 25.4825L23.999 23.2888C23.5917 23.4578 23.1646 23.7504 22.7746 24.051C22.3662 24.3657 21.9213 24.7506 21.4681 25.164C20.5623 25.9903 19.567 26.9829 18.6848 27.8625L20.3616 29.5444ZM27.4575 22.8493C26.2943 22.6774 25.0982 22.8327 23.999 23.2888L24.9092 25.4825C25.6228 25.1864 26.3849 25.0915 27.1103 25.1987L27.4575 22.8493ZM19.4964 31.791L20.0959 32.0285L20.9708 29.8206L20.3713 29.583L19.4964 31.791ZM22.4649 33.5821L23.9861 35.0988L25.6629 33.4168L24.1418 31.9003L22.4649 33.5821ZM20.0959 32.0285C20.1967 32.0684 20.237 32.0844 20.2761 32.1006L21.1808 29.9046C21.1235 29.881 21.0659 29.8582 20.9708 29.8206L20.0959 32.0285ZM24.1418 31.9003C24.0694 31.8281 24.0256 31.7844 23.9811 31.7412L22.3272 33.4458C22.3575 33.4751 22.3883 33.5056 22.4649 33.5821L24.1418 31.9003ZM20.2761 32.1006C21.0395 32.415 21.7356 32.8717 22.3272 33.4458L23.9811 31.7412C23.173 30.9571 22.2226 30.3339 21.1808 29.9046L20.2761 32.1006ZM18.6848 27.8625C17.4596 29.0839 17.8916 31.1551 19.4964 31.791L20.3713 29.583C20.3643 29.5802 20.3614 29.5781 20.361 29.5778C20.3612 29.578 20.3603 29.5773 20.361 29.5778C20.3602 29.5769 20.3565 29.572 20.355 29.5648C20.3536 29.5577 20.3545 29.5533 20.3547 29.5527C20.3545 29.5531 20.3547 29.5527 20.3547 29.5527C20.3548 29.5526 20.3565 29.5495 20.3616 29.5444L18.6848 27.8625ZM42.2275 38.2412L42.8707 39.2346L44.8642 37.9437L44.2211 36.9505L42.2275 38.2412ZM40.4295 49.542L40.2965 49.6746L41.9732 51.3565L42.1064 51.2239L40.4295 49.542ZM42.8707 39.2346C43.5257 40.2462 43.9796 40.9486 44.2947 41.5301C44.6019 42.0966 44.7357 42.4754 44.7868 42.8201L47.136 42.4708C47.0285 41.748 46.7603 41.0947 46.3827 40.3982C46.0133 39.7166 45.4995 38.9246 44.8642 37.9437L42.8707 39.2346ZM42.1064 51.2239C42.9885 50.3444 43.9842 49.352 44.8129 48.449C45.2276 47.9971 45.6136 47.5534 45.9295 47.1462C46.2308 46.7575 46.5247 46.3311 46.6946 45.9242L44.5029 45.0093C44.4589 45.1148 44.3261 45.338 44.0526 45.6908C43.7933 46.0252 43.456 46.415 43.0632 46.843C42.2769 47.6997 41.3211 48.6531 40.4295 49.542L42.1064 51.2239ZM44.7868 42.8201C44.894 43.5413 44.7993 44.2992 44.5029 45.0093L46.6946 45.9242C47.1526 44.8269 47.3087 43.6326 47.136 42.4708L44.7868 42.8201ZM37.4025 45.1246L36.5745 44.3988L35.0089 46.1845L35.8367 46.9105L37.4025 45.1246ZM40.4558 49.7201C40.1158 48.8675 39.9116 48.3495 39.643 47.86L37.5608 49.0022C37.7434 49.335 37.8892 49.6954 38.2495 50.5996L40.4558 49.7201ZM35.7811 46.8585C36.4711 47.5465 36.7457 47.8229 36.98 48.1219L38.8493 46.657C38.5049 46.2174 38.1089 45.8254 37.458 45.1765L35.7811 46.8585ZM39.643 47.86C39.4117 47.438 39.1462 47.0357 38.8493 46.657L36.98 48.1219C37.1973 48.3991 37.3915 48.6936 37.5608 49.0022L39.643 47.86ZM42.3843 30.2494C41.6469 30.9847 40.4497 30.9847 39.7122 30.2494L38.0353 31.9313C39.6997 33.5907 42.3968 33.5907 44.0612 31.9313L42.3843 30.2494ZM39.7122 30.2494C38.9768 29.5161 38.9768 28.3287 39.7122 27.5954L38.0353 25.9135C36.369 27.5749 36.369 30.27 38.0353 31.9313L39.7122 30.2494ZM39.7122 27.5954C40.4497 26.8602 41.6469 26.8602 42.3843 27.5954L44.0612 25.9135C42.3968 24.2541 39.6997 24.2541 38.0353 25.9135L39.7122 27.5954ZM42.3843 27.5954C43.1199 28.3287 43.1199 29.5161 42.3843 30.2494L44.0612 31.9313C45.7275 30.27 45.7275 27.5749 44.0612 25.9135L42.3843 27.5954ZM40.2965 49.6746C40.3065 49.6647 40.3231 49.6544 40.3414 49.6493C40.357 49.6449 40.3687 49.6453 40.3769 49.6471C40.385 49.6487 40.3986 49.6531 40.4149 49.6661C40.4334 49.681 40.4483 49.7016 40.4558 49.7201L38.2495 50.5996C38.8575 52.1245 40.8334 52.493 41.9732 51.3565L40.2965 49.6746ZM38.0353 41.0892C37.2258 41.8964 36.6167 42.5028 36.0932 42.9548C35.5679 43.4084 35.2138 43.6298 34.9361 43.7321L35.7569 45.9608C36.4344 45.7112 37.0454 45.2706 37.6455 44.7522C38.2478 44.2321 38.9247 43.5563 39.7122 42.7711L38.0353 41.0892ZM34.9361 43.7321C34.7898 43.7861 34.6592 43.8085 34.5249 43.8085V46.1835C34.9535 46.1835 35.3614 46.1064 35.7569 45.9608L34.9361 43.7321ZM36.6314 44.452L36.1861 44.0068L34.5069 45.6861L34.9521 46.1313L36.6314 44.452ZM27.163 30.2494C26.3943 31.0158 25.7307 31.6766 25.2154 32.2646C24.7023 32.8503 24.2635 33.4431 24.0018 34.0938L26.2053 34.9799C26.3177 34.7004 26.5488 34.3467 27.0017 33.8299C27.4524 33.3155 28.0507 32.7181 28.8399 31.9313L27.163 30.2494ZM24.0018 34.0938C23.831 34.5187 23.7388 34.9593 23.7388 35.4262H26.1138C26.1138 35.2836 26.1398 35.1428 26.2053 34.9799L24.0018 34.0938ZM23.9848 35.0975L24.2639 35.3765L25.9432 33.6971L25.6642 33.4181L23.9848 35.0975Z" fill="white"/>
<defs>
<linearGradient id="paint0_linear_114_143" x1="8.47012" y1="119.123" x2="88.1704" y2="105.381" gradientUnits="userSpaceOnUse">
<stop offset="0.2413" stop-color="#8E2DE2"/>
<stop offset="0.7874" stop-color="#4A00E0"/>
</linearGradient>
</defs>
</svg>
