<svg width="70" height="70" viewBox="0 0 70 70" fill="none" xmlns="http://www.w3.org/2000/svg">
<rect width="70" height="70" rx="35" fill="url(#paint0_linear_114_104)"/>
<path d="M35 20.75C31.2 20.75 27.875 23.125 26.2917 26.925C25.1834 29.775 25.1834 33.1 26.45 35.95L28.9834 41.65V44.8167C28.9834 46.4 30.25 47.6667 31.8334 47.6667C31.8334 48.6167 32.4667 49.25 33.4167 49.25H36.2667C37.2167 49.25 37.85 48.6167 37.85 47.6667C39.4334 47.6667 40.7 46.4 40.7 44.8167V41.65L43.2334 35.95C44.5 33.1 44.5 29.775 43.3917 26.925C42.125 23.125 38.8 20.75 35 20.75ZM37.85 44.5H32.3084V42.9167H37.85V44.5ZM40.7 34.6833L38.325 39.75H36.5834V37.6917C37.375 37.5333 37.85 36.9 37.85 36.1083C37.85 35.1583 37.2167 34.525 36.2667 34.525H33.575C32.625 34.525 31.9917 35.1583 31.9917 36.1083C31.9917 36.9 32.625 37.5333 33.2584 37.6917V39.75H31.675L29.4584 34.6833C28.5084 32.625 28.5084 30.25 29.3 28.1917C30.4084 25.5 32.4667 23.9167 35 23.9167C37.5334 23.9167 39.5917 25.5 40.7 28.1917C41.4917 30.25 41.4917 32.625 40.7 34.6833Z" fill="white"/>
<path d="M21.8582 22.8083C21.2248 22.1749 20.2748 22.1749 19.6415 22.8083C19.0082 23.4416 19.0082 24.3916 19.6415 25.0249L21.2248 26.6083C21.5415 26.9249 21.8582 27.0833 22.3332 27.0833C22.8082 27.0833 23.1248 26.9249 23.4415 26.6083C24.0748 25.9749 24.0748 25.0249 23.4415 24.3916L21.8582 22.8083Z" fill="white"/>
<path d="M20.7499 31.8334C21.6999 31.8334 22.3333 31.2001 22.3333 30.2501C22.3333 29.3001 21.6999 28.6667 20.7499 28.6667H19.1666C18.2166 28.6667 17.5833 29.3001 17.5833 30.2501C17.5833 31.2001 18.2166 31.8334 19.1666 31.8334H20.7499Z" fill="white"/>
<path d="M21.2248 33.8917L19.6415 35.4751C19.0082 36.1084 19.0082 37.0584 19.6415 37.6917C19.9582 38.0084 20.2748 38.1667 20.7498 38.1667C21.2248 38.1667 21.5415 38.0084 21.8582 37.6917L23.4415 36.1084C24.0748 35.4751 24.0748 34.5251 23.4415 33.8917C22.8082 33.2584 21.8582 33.2584 21.2248 33.8917Z" fill="white"/>
<path d="M48.7749 33.8917C48.1416 33.2584 47.1916 33.2584 46.5583 33.8917C45.9249 34.5251 45.9249 35.4751 46.5583 36.1084L48.1416 37.6917C48.4583 38.0084 48.9333 38.1667 49.2499 38.1667C49.5666 38.1667 50.0416 38.0084 50.3583 37.6917C50.9916 37.0584 50.9916 36.1084 50.3583 35.4751L48.7749 33.8917Z" fill="white"/>
<path d="M50.8333 28.6667H49.25C48.3 28.6667 47.6666 29.3001 47.6666 30.2501C47.6666 31.2001 48.3 31.8334 49.25 31.8334H50.8333C51.7833 31.8334 52.4166 31.2001 52.4166 30.2501C52.4166 29.3001 51.7833 28.6667 50.8333 28.6667Z" fill="white"/>
<path d="M47.6666 27.0833C48.1416 27.0833 48.4583 26.9249 48.7749 26.6083L50.3583 25.0249C50.9916 24.3916 50.9916 23.4416 50.3583 22.8083C49.7249 22.1749 48.7749 22.1749 48.1416 22.8083L46.5583 24.3916C45.9249 25.0249 45.9249 25.9749 46.5583 26.6083C46.8749 26.9249 47.1916 27.0833 47.6666 27.0833Z" fill="white"/>
<defs>
<linearGradient id="paint0_linear_114_104" x1="8.47012" y1="119.123" x2="88.1704" y2="105.381" gradientUnits="userSpaceOnUse">
<stop offset="0.2413" stop-color="#8E2DE2"/>
<stop offset="0.7874" stop-color="#4A00E0"/>
</linearGradient>
</defs>
</svg>
