<svg width="70" height="70" viewBox="0 0 70 70" fill="none" xmlns="http://www.w3.org/2000/svg">
<rect width="70" height="70" rx="35" fill="url(#paint0_linear_114_84)"/>
<path d="M19.6609 43.75H18.3438C18.0039 43.75 17.6781 43.6183 17.4378 43.3839C17.1975 43.1495 17.0625 42.8315 17.0625 42.5V23.75C17.0625 23.4185 17.1975 23.1005 17.4378 22.8661C17.6781 22.6317 18.0039 22.5 18.3438 22.5H41.4062C41.7461 22.5 42.072 22.6317 42.3122 22.8661C42.5525 23.1005 42.6875 23.4185 42.6875 23.75V27.5H49.2757C49.5817 27.5001 49.8775 27.6071 50.1097 27.8015C50.3419 27.9959 50.4951 28.265 50.5416 28.56L52.7094 42.31C52.7375 42.4881 52.7258 42.67 52.6751 42.8432C52.6244 43.0165 52.5359 43.177 52.4156 43.3138C52.2954 43.4505 52.1463 43.5603 51.9785 43.6356C51.8107 43.7109 51.6282 43.7499 51.4436 43.75H47.7792C47.8678 44.5359 47.7857 45.3311 47.5381 46.0839C47.2905 46.8367 46.883 47.5301 46.3422 48.1189C45.8015 48.7077 45.1396 49.1787 44.3997 49.5012C43.6598 49.8236 42.8585 49.9903 42.0482 49.9903C41.2378 49.9903 40.4365 49.8236 39.6966 49.5012C38.9567 49.1787 38.2948 48.7077 37.7541 48.1189C37.2133 47.5301 36.8058 46.8367 36.5582 46.0839C36.3106 45.3311 36.2285 44.5359 36.3171 43.75H31.1204C31.209 44.5359 31.1269 45.3311 30.8793 46.0839C30.6317 46.8367 30.2242 47.5301 29.6834 48.1189C29.1427 48.7077 28.4808 49.1787 27.7409 49.5012C27.001 49.8236 26.1997 49.9903 25.3893 49.9903C24.579 49.9903 23.7777 49.8236 23.0378 49.5012C22.2979 49.1787 21.636 48.7077 21.0952 48.1189C20.5545 47.5301 20.147 46.8367 19.8994 46.0839C19.6518 45.3311 19.5697 44.5359 19.6583 43.75H19.6609ZM20.5962 41.25C21.1221 40.4796 21.835 39.8479 22.6714 39.4109C23.5078 38.974 24.4419 38.7453 25.3906 38.7453C26.3394 38.7453 27.2735 38.974 28.1099 39.4109C28.9463 39.8479 29.6591 40.4796 30.1851 41.25H37.255C37.9392 40.25 38.9463 39.4775 40.1276 39.07V25H19.625V41.25H20.5962ZM46.8413 41.25H49.9496L49.1629 36.25H42.6875V38.785C43.5221 38.8759 44.3263 39.1437 45.0438 39.5695C45.7612 39.9952 46.3747 40.5688 46.8413 41.25ZM48.7683 33.75L48.1789 30H42.6875V33.75H48.7683ZM42.0469 47.5C42.8964 47.5 43.7111 47.1708 44.3118 46.5847C44.9125 45.9987 45.25 45.2038 45.25 44.375C45.25 43.5462 44.9125 42.7513 44.3118 42.1653C43.7111 41.5792 42.8964 41.25 42.0469 41.25C41.1974 41.25 40.3826 41.5792 39.7819 42.1653C39.1812 42.7513 38.8438 43.5462 38.8438 44.375C38.8438 45.2038 39.1812 45.9987 39.7819 46.5847C40.3826 47.1708 41.1974 47.5 42.0469 47.5ZM25.3906 47.5C26.2401 47.5 27.0549 47.1708 27.6556 46.5847C28.2563 45.9987 28.5938 45.2038 28.5938 44.375C28.5938 43.5462 28.2563 42.7513 27.6556 42.1653C27.0549 41.5792 26.2401 41.25 25.3906 41.25C24.5411 41.25 23.7264 41.5792 23.1257 42.1653C22.525 42.7513 22.1875 43.5462 22.1875 44.375C22.1875 45.2038 22.525 45.9987 23.1257 46.5847C23.7264 47.1708 24.5411 47.5 25.3906 47.5Z" fill="white"/>
<defs>
<linearGradient id="paint0_linear_114_84" x1="8.47012" y1="119.123" x2="88.1704" y2="105.381" gradientUnits="userSpaceOnUse">
<stop offset="0.2413" stop-color="#8E2DE2"/>
<stop offset="0.7874" stop-color="#4A00E0"/>
</linearGradient>
</defs>
</svg>
