<svg width="70" height="70" viewBox="0 0 70 70" fill="none" xmlns="http://www.w3.org/2000/svg">
<rect width="70" height="70" rx="35" fill="url(#paint0_linear_114_109)"/>
<path fill-rule="evenodd" clip-rule="evenodd" d="M22.38 31.7238C22.3786 29.262 23.0786 26.8533 24.3939 24.7939C25.6963 22.7509 27.5619 21.1516 29.7532 20.1994C32.6753 18.9335 35.9724 18.9335 38.8945 20.1994C41.0867 21.1512 42.9531 22.7506 44.2561 24.7939C46.9297 28.983 46.9452 34.3948 44.2956 38.5998L49.6812 48.4368L44.0083 47.3118L42.1939 52.9998L37.1944 43.831C35.3109 44.3182 33.339 44.3182 31.4556 43.831L26.456 52.9998L24.6418 47.3095L18.9688 48.4368L24.3544 38.5998C23.063 36.5514 22.3772 34.1632 22.38 31.7238Z" stroke="white" stroke-width="3" stroke-linecap="round" stroke-linejoin="round"/>
<path fill-rule="evenodd" clip-rule="evenodd" d="M33.7634 26.7356C33.869 26.5158 34.0872 26.3767 34.3262 26.3767C34.5649 26.3767 34.7831 26.5158 34.8889 26.7356L36.0537 29.0891C36.1406 29.2672 36.3023 29.3948 36.4925 29.4356L38.9319 29.9373C39.1553 29.9914 39.3349 30.161 39.4062 30.3847C39.4775 30.6085 39.4298 30.8542 39.2807 31.033L37.5389 33.058C37.4161 33.202 37.3587 33.3926 37.381 33.5823L37.7034 36.3228C37.736 36.5624 37.6368 36.8009 37.4453 36.9424C37.2541 37.084 37.0021 37.1053 36.7908 36.9978L34.5971 35.8548C34.4193 35.7614 34.2087 35.7614 34.031 35.8548L31.8372 36.9978C31.6259 37.1053 31.3739 37.084 31.1827 36.9424C30.9912 36.8009 30.892 36.5624 30.9246 36.3228L31.2473 33.589C31.2693 33.3994 31.2119 33.2088 31.0893 33.0648L29.3474 31.0398C29.1946 30.8578 29.1476 30.6064 29.224 30.3793C29.3003 30.1523 29.4885 29.984 29.7181 29.9373L32.1576 29.4333C32.3477 29.3926 32.5093 29.265 32.5964 29.0868L33.7634 26.7356Z" stroke="white" stroke-width="3" stroke-linecap="round" stroke-linejoin="round"/>
<path d="M25.7788 37.6948C25.279 36.9082 24.2361 36.6758 23.4495 37.1755C22.6629 37.6752 22.4303 38.7181 22.9302 39.5047L25.7788 37.6948ZM25.8901 40.5527L27.1102 39.387L27.1049 39.3816L25.8901 40.5527ZM30.7755 43.6397L31.3027 42.0366L31.3004 42.0359L30.7755 43.6397ZM31.045 45.4762C31.9475 45.7091 32.8678 45.1664 33.1006 44.2639C33.3335 43.3614 32.7906 42.4412 31.8881 42.2083L31.045 45.4762ZM45.72 39.5047C46.2197 38.7181 45.9873 37.6752 45.2007 37.1755C44.4141 36.6758 43.3712 36.9082 42.8713 37.6948L45.72 39.5047ZM42.7601 40.5527L41.5451 39.3816L41.5399 39.387L42.7601 40.5527ZM37.8745 43.6397L37.3498 42.0359L37.3475 42.0366L37.8745 43.6397ZM36.7618 42.2083C35.8596 42.4412 35.3167 43.3614 35.5495 44.2639C35.7824 45.1664 36.7027 45.7091 37.6051 45.4762L36.7618 42.2083ZM22.9302 39.5047C23.4369 40.3023 24.0215 41.0459 24.6752 41.7241L27.1049 39.3816C26.6091 38.8673 26.1647 38.3021 25.7788 37.6948L22.9302 39.5047ZM24.67 41.7185C26.2188 43.3394 28.134 44.551 30.2508 45.2435L31.3004 42.0359C29.7181 41.5182 28.279 40.6103 27.1102 39.387L24.67 41.7185ZM30.2486 45.2429C30.5116 45.3293 30.7771 45.4071 31.045 45.4762L31.8881 42.2083C31.6912 42.1574 31.4959 42.1003 31.3027 42.0366L30.2486 45.2429ZM42.8713 37.6948C42.4854 38.3021 42.041 38.8673 41.5451 39.3816L43.9749 41.7241C44.6287 41.0459 45.2133 40.3023 45.72 39.5047L42.8713 37.6948ZM41.5399 39.387C40.3711 40.6103 38.932 41.5182 37.3498 42.0359L38.3994 45.2435C40.5162 44.551 42.4314 43.3394 43.9801 41.7185L41.5399 39.387ZM37.3475 42.0366C37.1542 42.1003 36.9589 42.1574 36.7618 42.2083L37.6051 45.4762C37.8731 45.4071 38.1386 45.3293 38.4016 45.2429L37.3475 42.0366Z" fill="white"/>
<defs>
<linearGradient id="paint0_linear_114_109" x1="8.47012" y1="119.123" x2="88.1704" y2="105.381" gradientUnits="userSpaceOnUse">
<stop offset="0.2413" stop-color="#8E2DE2"/>
<stop offset="0.7874" stop-color="#4A00E0"/>
</linearGradient>
</defs>
</svg>
