<svg width="70" height="70" viewBox="0 0 70 70" fill="none" xmlns="http://www.w3.org/2000/svg">
<rect width="70" height="70" rx="35" fill="url(#paint0_linear_114_55)"/>
<path fill-rule="evenodd" clip-rule="evenodd" d="M20.3333 18.5C19.3208 18.5 18.5 19.3208 18.5 20.3333C18.5 21.3458 19.3208 22.1667 20.3333 22.1667H22.1667C23.0845 22.1667 23.8448 22.8412 23.979 23.7216L24.4903 31.905C24.7922 36.7362 28.7985 40.5 33.6391 40.5H42.3333C47.3959 40.5 51.5 36.3959 51.5 31.3333C51.5 26.2707 47.3959 22.1667 42.3333 22.1667H27.3537C26.5987 20.0305 24.5614 18.5 22.1667 18.5H20.3333ZM28.1499 31.6764L27.7848 25.8333H42.3333C45.3708 25.8333 47.8333 28.2958 47.8333 31.3333C47.8333 34.371 45.3708 36.8333 42.3333 36.8333H33.6391C30.7348 36.8333 28.331 34.575 28.1499 31.6764Z" fill="white"/>
<path d="M35 47.8334C35 49.8585 33.3584 51.5001 31.3333 51.5001C29.3082 51.5001 27.6666 49.8585 27.6666 47.8334C27.6666 45.8083 29.3082 44.1667 31.3333 44.1667C33.3584 44.1667 35 45.8083 35 47.8334Z" fill="white"/>
<path d="M42.3333 51.5001C44.3584 51.5001 46 49.8585 46 47.8334C46 45.8083 44.3584 44.1667 42.3333 44.1667C40.3082 44.1667 38.6666 45.8083 38.6666 47.8334C38.6666 49.8585 40.3082 51.5001 42.3333 51.5001Z" fill="white"/>
<defs>
<linearGradient id="paint0_linear_114_55" x1="8.47012" y1="119.123" x2="88.1704" y2="105.381" gradientUnits="userSpaceOnUse">
<stop offset="0.2413" stop-color="#8E2DE2"/>
<stop offset="0.7874" stop-color="#4A00E0"/>
</linearGradient>
</defs>
</svg>
